<?xml version="1.0" encoding="UTF-8"?>
<svg width="24px" height="24px" viewBox="0 0 24 24" version="1.1" xmlns="http://www.w3.org/2000/svg" xmlns:xlink="http://www.w3.org/1999/xlink">
    <title>arrow-go-forward-line</title>
    <g id="页面-1" stroke="none" stroke-width="1" fill="none" fill-rule="evenodd">
        <g id="按钮备份" transform="translate(-955.000000, -515.000000)">
            <g id="arrow-go-forward-line" transform="translate(955.000000, 515.000000)">
                <polygon id="路径" points="0 0 24 0 24 24 0 24"></polygon>
                <path d="M18.172,7 L11,7 C7.6862915,7 5,9.6862915 5,13 C5,16.3137085 7.6862915,19 11,19 L20,19 L20,21 L11,21 C6.581722,21 3,17.418278 3,13 C3,8.581722 6.581722,5 11,5 L18.172,5 L15.636,2.464 L17.05,1.05 L22,6 L17.05,10.95 L15.636,9.536 L18.172,7 Z" id="路径" fill="#4CAAB4" fill-rule="nonzero"></path>
            </g>
        </g>
    </g>
</svg>