<?xml version="1.0" encoding="UTF-8"?>
<svg width="18px" height="18px" viewBox="0 0 18 18" version="1.1" xmlns="http://www.w3.org/2000/svg" xmlns:xlink="http://www.w3.org/1999/xlink">
    <title>play-normal</title>
    <g id="页面-1" stroke="none" stroke-width="1" fill="none" fill-rule="evenodd">
        <g id="按钮备份" transform="translate(-949.000000, -635.000000)">
            <g id="play-normal" transform="translate(949.000000, 635.000000)">
                <polygon id="路径" points="0 0 18 0 18 18 0 18"></polygon>
                <path d="M12.2955,9 L7.5,5.80275 L7.5,12.19725 L12.2955,9 Z M14.532,9.312 L6.58275,14.6115 C6.46769046,14.6880666 6.31984251,14.6951393 6.19799958,14.6299055 C6.07615664,14.5646717 6,14.4377069 6,14.2995 L6,3.7005 C6,3.56229311 6.07615664,3.43532826 6.19799958,3.37009446 C6.31984251,3.30486066 6.46769046,3.31193335 6.58275,3.3885 L14.532,8.688 C14.6363082,8.75755244 14.6989591,8.8746296 14.6989591,9 C14.6989591,9.1253704 14.6363082,9.24244756 14.532,9.312 L14.532,9.312 Z" id="形状" fill="#4CAAB4" fill-rule="nonzero"></path>
            </g>
        </g>
    </g>
</svg>