<?xml version="1.0" encoding="UTF-8"?>
<svg width="25px" height="25px" viewBox="0 0 25 25" version="1.1" xmlns="http://www.w3.org/2000/svg" xmlns:xlink="http://www.w3.org/1999/xlink">
    <title>编组 17</title>
    <g id="页面-1" stroke="none" stroke-width="1" fill="none" fill-rule="evenodd">
        <g id="数据要素加工_读取数据表备份" transform="translate(-44.000000, -538.000000)">
            <g id="编组-17" transform="translate(44.000000, 538.000000)">
                <rect id="矩形" fill="#4CAAB4" opacity="0.0626961844" x="0" y="0" width="25" height="25" rx="4"></rect>
                <polygon id="路径" points="5 5 21 5 21 21 5 21"></polygon>
                <path d="M13,7 L13,9.66666667 L9.15733333,9.66666667 L7.82333333,12.3333333 L19.6666667,12.3333333 L19.6666667,19 C19.6666667,19.3681898 19.3681898,19.6666667 19,19.6666667 L18.3333333,19.6666667 C17.9651435,19.6666667 17.6666667,19.3681898 17.6666667,19 L17.6666667,18.3333333 L8.33333333,18.3333333 L8.33333333,19 C8.33333333,19.3681898 8.0348565,19.6666667 7.66666667,19.6666667 L7,19.6666667 C6.63181017,19.6666667 6.33333333,19.3681898 6.33333333,19 L6.33333333,12.3333333 L7.96466667,9.07066667 C8.19056611,8.6185978 8.65263205,8.33309784 9.158,8.33333333 L11,8.33333333 L11,7 L13,7 Z M18.3333333,13.6666667 L7.66666667,13.6666667 L7.66666667,17 L18.3333333,17 L18.3333333,13.6666667 Z M9.33333333,14.3333333 C9.88561808,14.3333333 10.3333333,14.7810486 10.3333333,15.3333333 C10.3333333,15.8856181 9.88561808,16.3333333 9.33333333,16.3333333 C8.78104858,16.3333333 8.33333333,15.8856181 8.33333333,15.3333333 C8.33333333,14.7810486 8.78104858,14.3333333 9.33333333,14.3333333 L9.33333333,14.3333333 Z M16.6666667,14.3333333 C17.2189514,14.3333333 17.6666667,14.7810486 17.6666667,15.3333333 C17.6666667,15.8856181 17.2189514,16.3333333 16.6666667,16.3333333 C16.1143819,16.3333333 15.6666667,15.8856181 15.6666667,15.3333333 C15.6666667,14.7810486 16.1143819,14.3333333 16.6666667,14.3333333 L16.6666667,14.3333333 Z" id="形状" fill="#4CAAB4" fill-rule="nonzero"></path>
                <circle id="椭圆形" fill="#4CAAB4" fill-rule="nonzero" cx="17" cy="7.66666667" r="3"></circle>
                <path d="M17.675,7.70753769 L18.5,8.45376884 L17.675,9.2 L17.4393333,8.98683417 L17.862,8.60437186 L15.6666667,8.60452261 L15.6666667,8.30301508 L17.862,8.30301508 L17.4393333,7.92070352 L17.675,7.70753769 Z M16.325,6.2 L16.5606667,6.41316583 L16.138,6.79547739 L18.3333333,6.79547739 L18.3333333,7.09698492 L16.138,7.09698492 L16.5606667,7.47929648 L16.325,7.69246231 L15.5,6.94623116 L16.325,6.2 L16.325,6.2 Z" id="形状" stroke="#FFFFFF" stroke-width="0.2" fill="#FFFFFF" fill-rule="nonzero"></path>
            </g>
        </g>
    </g>
</svg>