<?xml version="1.0" encoding="UTF-8"?>
<svg width="25px" height="25px" viewBox="0 0 25 25" version="1.1" xmlns="http://www.w3.org/2000/svg" xmlns:xlink="http://www.w3.org/1999/xlink">
    <title>编组 16</title>
    <g id="页面-1" stroke="none" stroke-width="1" fill="none" fill-rule="evenodd">
        <g id="数据要素加工_读取数据表备份" transform="translate(-44.000000, -503.000000)">
            <g id="编组-16" transform="translate(44.000000, 503.000000)">
                <rect id="矩形" fill="#4CAAB4" opacity="0.0626961844" x="0" y="0" width="25" height="25" rx="4"></rect>
                <polygon id="路径" points="5 5 21 5 21 21 5 21"></polygon>
                <path d="M7.66666667,15.6666667 L7.66666667,18.3333333 L10.3333333,18.3333333 L10.3333333,19.6666667 L6.33333333,19.6666667 L6.33333333,15.6666667 L7.66666667,15.6666667 Z M19.6666667,15.6666667 L19.6666667,19.6666667 L15.6666667,19.6666667 L15.6666667,18.3333333 L18.3333333,18.3333333 L18.3333333,15.6666667 L19.6666667,15.6666667 Z M10.3333333,6.33333333 L10.3333333,7.66666667 L7.66666667,7.666 L7.66666667,10.3333333 L6.33333333,10.3333333 L6.33333333,6.33333333 L10.3333333,6.33333333 Z M19.6666667,6.33333333 L19.6666667,10.3333333 L18.3333333,10.3333333 L18.3333333,7.66666667 L15.6666667,7.66666667 L15.6666667,6.33333333 L19.6666667,6.33333333 Z" id="形状" fill="#4CAAB4" fill-rule="nonzero"></path>
                <polygon id="路径" points="8.33333333 7.66666667 17.6666667 7.66666667 17.6666667 17 8.33333333 17"></polygon>
                <path d="M15.7222222,15.4444444 L10.2777778,15.4444444 L10.2777778,15.8333333 C10.2777778,16.0481107 10.1036663,16.2222219 9.88888889,16.2222219 L9.5,16.2222219 C9.2852226,16.2222219 9.11111111,16.0481107 9.11111111,15.8333333 L9.11111111,12.9166667 L8.62772222,12.7961111 C8.45469348,12.7527659 8.33333333,12.5972642 8.33333333,12.4188889 L8.33333333,12.1388889 C8.33333333,12.0315002 8.42038908,11.9444444 8.52777778,11.9444444 L9.11111111,11.9444444 L10.0755556,9.69355556 C10.1982311,9.40738161 10.4797516,9.2219453 10.7911111,9.22222191 L15.2088889,9.22222191 C15.5199658,9.22222191 15.8011023,9.40764148 15.9236667,9.69355556 L16.8888889,11.9444444 L17.4722222,11.9444444 C17.5796109,11.9444444 17.6666667,12.0315002 17.6666667,12.1388889 L17.6666667,12.4188889 C17.6666667,12.5972642 17.5453065,12.7527659 17.3722778,12.7961111 L16.8888889,12.9166667 L16.8888889,15.8333333 C16.8888889,16.0481107 16.7147774,16.2222219 16.5,16.2222219 L16.1111111,16.2222219 C15.8963337,16.2222219 15.7222222,16.0481107 15.7222222,15.8333333 L15.7222222,15.4444444 Z M16.1111111,14.6666667 L16.1111111,12.7222222 L9.88888889,12.7222222 L9.88888889,14.6666667 L16.1111111,14.6666667 Z M10.4632778,11.9444444 L15.5367222,11.9444444 C15.6656923,11.9443628 15.7862324,11.8803474 15.8585254,11.7735438 C15.9308184,11.6667402 15.945459,11.5310436 15.8976111,11.4112778 L15.3333333,10 L10.6666667,10 L10.1023889,11.4112778 C10.054541,11.5310436 10.0691816,11.6667402 10.1414746,11.7735438 C10.2137676,11.8803474 10.3343077,11.9443628 10.4632778,11.9444444 Z M10.2777778,13.1111111 C11.1788333,13.1111111 11.7862778,13.4047222 12.1001111,13.9915556 C12.132382,14.0518309 12.130625,14.1246259 12.0954839,14.1832742 C12.0603427,14.2419225 11.9969816,14.2778052 11.9286111,14.2777778 L10.6666667,14.2777778 C10.4518893,14.2777778 10.2777778,14.1036663 10.2777778,13.8888889 L10.2777778,13.1111111 Z M15.7222222,13.1111111 L15.7222222,13.8888889 C15.7222222,14.1036663 15.5481107,14.2777778 15.3333333,14.2777778 L14.0713889,14.2777778 C14.0030877,14.2776686 13.939852,14.2417315 13.904805,14.1831075 C13.869758,14.1244835 13.8680395,14.0517698 13.9002778,13.9915556 C14.2133333,13.4043333 14.8207778,13.1111111 15.7222222,13.1111111 Z" id="形状" stroke="#4CAAB4" stroke-width="0.4" fill="#4CAAB4" fill-rule="nonzero"></path>
            </g>
        </g>
    </g>
</svg>