<?xml version="1.0" encoding="UTF-8"?>
<svg width="24px" height="24px" viewBox="0 0 24 24" version="1.1" xmlns="http://www.w3.org/2000/svg" xmlns:xlink="http://www.w3.org/1999/xlink">
    <title>file-text-line (1)</title>
    <g id="页面-1" stroke="none" stroke-width="1" fill="none" fill-rule="evenodd">
        <g id="按钮备份" transform="translate(-1156.000000, -515.000000)">
            <g id="file-text-line-(1)" transform="translate(1156.000000, 515.000000)">
                <polygon id="路径" points="0 0 24 0 24 24 0 24"></polygon>
                <path d="M21.0000247,8 L21.0000247,20.993 C21.001863,21.2582184 20.8982888,21.5133136 20.7120638,21.7021642 C20.5258387,21.8910147 20.2722185,21.99815 20.007,22 L3.993,22 C3.44497153,22 3.00055189,21.5560282 3,21.008 L3,2.992 C3,2.455 3.449,2 4.002,2 L14.997,2 L21.0000247,8 Z M19,9 L14,9 L14,4 L5,4 L5,20 L19,20 L19,9 Z M8,7 L11,7 L11,9 L8,9 L8,7 Z M8,11 L16,11 L16,13 L8,13 L8,11 Z M8,15 L16,15 L16,17 L8,17 L8,15 Z" id="形状" fill="#3683DD" fill-rule="nonzero"></path>
            </g>
        </g>
    </g>
</svg>