<?xml version="1.0" encoding="UTF-8"?>
<svg width="12px" height="12px" viewBox="0 0 12 12" version="1.1" xmlns="http://www.w3.org/2000/svg" xmlns:xlink="http://www.w3.org/1999/xlink">
    <title>focus-3-line</title>
    <g id="页面-1" stroke="none" stroke-width="1" fill="none" fill-rule="evenodd">
        <g id="按钮备份" transform="translate(-818.000000, -725.000000)">
            <g id="focus-3-line" transform="translate(818.000000, 725.000000)">
                <polygon id="路径" points="0 0 12 0 12 12 0 12"></polygon>
                <path d="M6.5,0.5 L6.5005,2.031 C8.31292085,2.26013977 9.74012149,3.68754614 9.969,5.5 L11.5,5.5 L11.5,6.5 L9.969,6.5005 C9.73991044,8.31275924 8.31275924,9.73991044 6.5005,9.969 L6.5,11.5 L5.5,11.5 L5.5,9.969 C3.68754614,9.74012149 2.26013977,8.31292085 2.031,6.5005 L0.5,6.5 L0.5,5.5 L2.031,5.5 C2.2599287,3.68738453 3.68738453,2.2599287 5.5,2.031 L5.5,0.5 L6.5,0.5 Z M6,3 C4.34314575,3 3,4.34314575 3,6 C3,7.65685425 4.34314575,9 6,9 C7.65685425,9 9,7.65685425 9,6 C9,4.34314575 7.65685425,3 6,3 L6,3 Z M6,5 C6.55228475,5 7,5.44771525 7,6 C7,6.55228475 6.55228475,7 6,7 C5.44771525,7 5,6.55228475 5,6 C5,5.44771525 5.44771525,5 6,5 Z" id="形状" fill="#939393" fill-rule="nonzero"></path>
            </g>
        </g>
    </g>
</svg>