<?xml version="1.0" encoding="UTF-8"?>
<svg width="12px" height="12px" viewBox="0 0 12 12" version="1.1" xmlns="http://www.w3.org/2000/svg" xmlns:xlink="http://www.w3.org/1999/xlink">
    <title>fullscreen-exit-line备份</title>
    <g id="页面-1" stroke="none" stroke-width="1" fill="none" fill-rule="evenodd">
        <g id="按钮备份" transform="translate(-866.000000, -707.000000)">
            <g id="fullscreen-exit-line备份" transform="translate(866.000000, 707.000000)">
                <polygon id="路径" points="0 0 12 0 12 12 0 12"></polygon>
                <path d="M9,3.5 L11,3.5 L11,4.5 L8,4.5 L8,1.5 L9,1.5 L9,3.5 Z M4,4.5 L1,4.5 L1,3.5 L3,3.5 L3,1.5 L4,1.5 L4,4.5 Z M9,8.5 L9,10.5 L8,10.5 L8,7.5 L11,7.5 L11,8.5 L9,8.5 Z M4,7.5 L4,10.5 L3,10.5 L3,8.5 L1,8.5 L1,7.5 L4,7.5 Z" id="形状" fill="#FFFFFF" fill-rule="nonzero"></path>
            </g>
        </g>
    </g>
</svg>