<?xml version="1.0" encoding="UTF-8"?>
<svg width="132px" height="33px" viewBox="0 0 132 33" version="1.1" xmlns="http://www.w3.org/2000/svg" xmlns:xlink="http://www.w3.org/1999/xlink">
    <title>logo</title>
    <defs>
        <polygon id="path-1" points="0 0 10.9056625 0 10.9056625 10.6321689 0 10.6321689"></polygon>
        <polygon id="path-3" points="0 32 35.12603 32 35.12603 0 0 0"></polygon>
    </defs>
    <g id="页面-1" stroke="none" stroke-width="1" fill="none" fill-rule="evenodd">
        <g id="数据要素加工_Min-Max标准化" transform="translate(-27.000000, -13.000000)">
            <g id="logo" transform="translate(27.000000, 13.000000)">
                <g id="编组">
                    <path d="M13.090753,14.0783471 L1.34994822,14.0783471 C0.604251735,14.0783471 2.6998423e-05,13.4892883 2.6998423e-05,12.7623087 L2.6998423e-05,1.31619632 C2.6998423e-05,0.58921671 0.604251735,0.000157924607 1.34994822,0.000157924607 L13.090753,0.000157924607 C13.8361795,0.000157924607 14.4406742,0.58921671 14.4406742,1.31619632 L14.4406742,12.7623087 C14.4406742,13.4892883 13.8361795,14.0783471 13.090753,14.0783471" id="Fill-1" fill="#4CAAB4"></path>
                    <path d="M31.7391587,22.3025605 L26.524683,27.3864168 C22.3234582,19.7328639 15.5746621,14.7177048 6.41058687,12.2119677 L11.6253325,7.12837461 C16.0252658,14.1473338 22.961161,19.0095692 31.7391587,22.3025605" id="Fill-3" fill="#4DA9B4"></path>
                    <g transform="translate(24.220367, 21.367831)">
                        <mask id="mask-2" fill="white">
                            <use xlink:href="#path-1"></use>
                        </mask>
                        <g id="Clip-6"></g>
                        <path d="M9.55582232,10.6322742 L1.34992122,10.6322742 C0.604224737,10.6322742 0,10.0429522 0,9.3162358 L0,1.3160384 C0,0.589321993 0.604224737,0 1.34992122,0 L9.55582232,0 C10.3012488,0 10.9057435,0.589321993 10.9057435,1.3160384 L10.9057435,9.3162358 C10.9057435,10.0429522 10.3012488,10.6322742 9.55582232,10.6322742" id="Fill-5" fill="#4CAAB4" mask="url(#mask-2)"></path>
                    </g>
                    <path d="M8.84314491,12.4242974 C8.84314491,10.2228283 10.6803877,8.42617271 12.9442056,8.42617271 L14.4377584,8.42617271 L14.4377584,4.95946437 L12.9442056,4.95946437 C8.71868217,4.95946437 5.28718244,8.31036133 5.28718244,12.4242974 L5.28718244,26.4064157 C5.28718244,27.6832361 6.34822051,28.7173791 7.65791408,28.7173791 L18.7877445,28.7173791 L18.7877445,25.2506708 L8.84314491,25.2506708 L8.84314491,12.4242974 Z M30.4926414,4.95946437 L19.825024,4.95946437 L19.825024,8.42617271 L29.3074106,8.42617271 L29.3074106,21.2525461 C29.3074106,23.4598057 27.4704378,25.2506708 25.2063499,25.2506708 L24.1690705,25.2506708 L24.1690705,28.7173791 L25.2063499,28.7173791 C29.4318733,28.7173791 32.8633731,25.3664821 32.8633731,21.2525461 L32.8633731,7.27042779 C32.8633731,5.99360734 31.802335,4.95946437 30.4926414,4.95946437 L30.4926414,4.95946437 Z" id="Fill-7" fill="#4CAAB4"></path>
                    <mask id="mask-4" fill="white">
                        <use xlink:href="#path-3"></use>
                    </mask>
                    <g id="Clip-10"></g>
                    <polygon id="Fill-9" fill="#E47911" mask="url(#mask-4)" points="19.2118088 28.717537 22.9022234 28.717537 22.9022234 25.2581985 19.2118088 25.2581985"></polygon>
                    <polygon id="Fill-11" fill="#E47911" mask="url(#mask-4)" points="15.7109231 8.41869762 19.4013377 8.41869762 19.4013377 4.95935909 15.7109231 4.95935909"></polygon>
                </g>
                <text id="DataRefinery" font-family="Exo-Bold, Exo" font-size="14.79" font-weight="bold" fill="#3F3F3F">
                    <tspan x="43.3470157" y="16.8152735">DataRefinery</tspan>
                </text>
                <text id="数据要素加工平台" font-family="SourceHanSansSC-Heavy, Source Han Sans SC" font-size="9" font-weight="800" letter-spacing="2" fill="#3F3F3F">
                    <tspan x="44" y="29.8152735">数据要素加工平台</tspan>
                </text>
            </g>
        </g>
    </g>
</svg>