<?xml version="1.0" encoding="UTF-8"?>
<svg width="25px" height="25px" viewBox="0 0 25 25" version="1.1" xmlns="http://www.w3.org/2000/svg" xmlns:xlink="http://www.w3.org/1999/xlink">
    <g id="页面-1" stroke="none" stroke-width="1" fill="none" fill-rule="evenodd">
        <g id="数据要素加工_读取数据表备份" transform="translate(-44.000000, -189.000000)">
            <g id="编组-20" transform="translate(44.000000, 189.000000)">
                <g id="编组-4">
<!--                    <rect id="矩形" fill="#4CAAB4" opacity="0.0626961844" x="0" y="0" width="25" height="25" rx="4"></rect>-->
                    <polygon id="路径" points="3 3 21 3 21 21 3 21"></polygon>
                </g>
                <path d="M6.75,12.375 C6.75,12.60975 7.09575,13.0185 7.8975,13.41975 C8.9355,13.93875 10.40775,14.25 12,14.25 C13.59225,14.25 15.0645,13.93875 16.1025,13.41975 C16.90425,13.0185 17.25,12.60975 17.25,12.375 L17.25,10.74675 C16.0125,11.51175 14.12025,12 12,12 C9.87975,12 7.9875,11.511 6.75,10.74675 L6.75,12.375 Z M17.25,14.49675 C16.0125,15.26175 14.12025,15.75 12,15.75 C9.87975,15.75 7.9875,15.261 6.75,14.49675 L6.75,16.125 C6.75,16.35975 7.09575,16.7685 7.8975,17.16975 C8.9355,17.68875 10.40775,18 12,18 C13.59225,18 15.0645,17.68875 16.1025,17.16975 C16.90425,16.7685 17.25,16.35975 17.25,16.125 L17.25,14.49675 Z M5.25,16.125 L5.25,8.625 C5.25,6.76125 8.2725,5.25 12,5.25 C15.7275,5.25 18.75,6.76125 18.75,8.625 L18.75,16.125 C18.75,17.98875 15.7275,19.5 12,19.5 C8.2725,19.5 5.25,17.98875 5.25,16.125 Z M12,10.5 C13.59225,10.5 15.0645,10.18875 16.1025,9.66975 C16.90425,9.2685 17.25,8.85975 17.25,8.625 C17.25,8.39025 16.90425,7.9815 16.1025,7.58025 C15.0645,7.06125 13.59225,6.75 12,6.75 C10.40775,6.75 8.9355,7.06125 7.8975,7.58025 C7.09575,7.9815 6.75,8.39025 6.75,8.625 C6.75,8.85975 7.09575,9.2685 7.8975,9.66975 C8.9355,10.18875 10.40775,10.5 12,10.5 Z" id="形状" fill="#A1A1A1" fill-rule="nonzero"></path>
            </g>
        </g>
    </g>
</svg>
