<?xml version="1.0" encoding="UTF-8"?>
<svg width="12px" height="12px" viewBox="0 0 12 12" version="1.1" xmlns="http://www.w3.org/2000/svg" xmlns:xlink="http://www.w3.org/1999/xlink">
    <title>编组 10备份</title>
    <g id="页面-1" stroke="none" stroke-width="1" fill="none" fill-rule="evenodd">
        <g id="按钮备份" transform="translate(-866.000000, -689.000000)">
            <g id="编组-10备份" transform="translate(866.000000, 689.000000)">
                <polygon id="路径" points="0 0 12 0 12 12 0 12"></polygon>
                <path d="M10,1.5 L11,1.5 L11,4.5 L10,4.5 L10,2.5 L8,2.5 L8,1.5 L10,1.5 Z M2,1.5 L4,1.5 L4,2.5 L2,2.5 L2,8 L1,8 L1,1.5 L2,1.5 Z M10,9.5 L10,4.18010558 L11,4.18010558 L11,10.5 L8,10.5 L8,9.5 L10,9.5 Z M2,9.5 L4,9.5 L4,10.5 L1,10.5 L1,7.5 L2,7.5 L2,9.5 Z" id="形状" fill="#FFFFFF" fill-rule="nonzero"></path>
                <g id="1:1" transform="translate(3.300000, 4.000000)" fill="#FFFFFF" fill-rule="nonzero" stroke="#FFFFFF" stroke-width="0.4">
                    <g id="编组-5">
                        <path d="M0,1.15568022 L0,0.76858345 C0.34868127,0.733052828 0.591864104,0.673679289 0.729548502,0.590462833 C0.867232901,0.507246377 0.970049173,0.310425432 1.03799732,0 L1.41886455,0 L1.41886455,4 L0.903889137,4 L0.903889137,1.15568022 L0,1.15568022 Z" id="路径"></path>
                        <path d="M2.5,1.03506311 L3.06057219,1.03506311 L3.06057219,1.64656381 L2.5,1.64656381 L2.5,1.03506311 Z M2.5,3.3884993 L3.06057219,3.3884993 L3.06057219,4 L2.5,4 L2.5,3.3884993 Z" id="形状"></path>
                        <path d="M4,1.15568022 L4,0.76858345 C4.34868127,0.733052828 4.5918641,0.673679289 4.7295485,0.590462833 C4.8672329,0.507246377 4.97004917,0.310425432 5.03799732,0 L5.41886455,0 L5.41886455,4 L4.90388914,4 L4.90388914,1.15568022 L4,1.15568022 Z" id="路径"></path>
                    </g>
                </g>
            </g>
        </g>
    </g>
</svg>