<?xml version="1.0" encoding="UTF-8"?>
<svg width="25px" height="25px" viewBox="0 0 25 25" version="1.1" xmlns="http://www.w3.org/2000/svg" xmlns:xlink="http://www.w3.org/1999/xlink">
    <title>编组 15</title>
    <g id="页面-1" stroke="none" stroke-width="1" fill="none" fill-rule="evenodd">
        <g id="数据要素加工_读取数据表备份" transform="translate(-44.000000, -468.000000)">
            <g id="编组-15" transform="translate(44.000000, 468.000000)">
                <rect id="矩形" fill="#4CAAB4" opacity="0.0626961844" x="0" y="0" width="25" height="25" rx="4"></rect>
                <polygon id="路径" points="5 5 21 5 21 21 5 21"></polygon>
                <path d="M19,15 L19,17 L21,17 L21,18.3333333 L19,18.3333333 L19,20.3333333 L17.6666667,20.3333333 L17.6666667,18.3333333 L15.6666667,18.3333333 L15.6666667,17 L17.6666667,17 L17.6666667,15 L19,15 Z M19.0053333,7 C19.3706667,7 19.6666667,7.29666667 19.6666667,7.662 L19.6666667,13.8946667 C19.2384217,13.7433972 18.7875096,13.6662912 18.3333333,13.6666667 L18.3333333,8.33333333 L7.66666667,8.33333333 L7.66733333,17.6666667 L13.862,11.4713333 C14.0992074,11.2333501 14.4765394,11.2093381 14.742,11.4153333 L14.804,11.472 L17.168,13.8386667 C16.1234785,14.1569525 15.2543693,14.8882206 14.7621659,15.8629344 C14.2699625,16.8376482 14.1974116,17.9711561 14.5613333,19.0006667 L6.99466667,19 C6.62931454,18.9996321 6.33333333,18.7033523 6.33333333,18.338 L6.33333333,7.662 C6.33587188,7.2977037 6.63037311,7.0029056 6.99466667,7 L19.0053333,7 L19.0053333,7 Z M10.3333333,9.66666667 C11.069713,9.66666667 11.6666667,10.2636203 11.6666667,11 C11.6666667,11.7363797 11.069713,12.3333333 10.3333333,12.3333333 C9.59695367,12.3333333 9,11.7363797 9,11 C9,10.2636203 9.59695367,9.66666667 10.3333333,9.66666667 Z" id="形状" fill="#4CAAB4" fill-rule="nonzero"></path>
            </g>
        </g>
    </g>
</svg>