<?xml version="1.0" encoding="UTF-8"?>
<svg width="25px" height="25px" viewBox="0 0 25 25" version="1.1" xmlns="http://www.w3.org/2000/svg" xmlns:xlink="http://www.w3.org/1999/xlink">
    <title>编组 14</title>
    <g id="页面-1" stroke="none" stroke-width="1" fill="none" fill-rule="evenodd">
        <g id="数据要素加工_读取数据表备份" transform="translate(-44.000000, -433.000000)">
            <g id="编组-14" transform="translate(44.000000, 433.000000)">
                <rect id="矩形" fill="#4CAAB4" opacity="0.0626961844" x="0" y="0" width="25" height="25" rx="4"></rect>
                <polygon id="路径" points="4 4 22 4 22 22 4 22"></polygon>
                <path d="M10,19 L10,20.449 C10.0002368,20.5946005 9.91617213,20.7271772 9.78437529,20.7890574 C9.65257844,20.8509377 9.49687578,20.8309347 9.385,20.73775 L6.295,18.163 C6.17357506,18.0617435 6.12870126,17.8952077 6.18281319,17.746652 C6.23692511,17.5980963 6.37839692,17.4994375 6.5365,17.5 L17.5,17.5 C18.3284271,17.5 19,16.8284271 19,16 L19,10 L20.5,10 L20.5,16 C20.5,17.6568542 19.1568542,19 17.5,19 L10,19 Z M16,7 L16,5.551 C15.9997632,5.40539947 16.0838279,5.2728228 16.2156247,5.21094257 C16.3474216,5.14906235 16.5031242,5.16906534 16.615,5.26225 L19.705,7.837 C19.8263178,7.93816883 19.8712288,8.10451445 19.8173126,8.25299401 C19.7633963,8.40147357 19.6222154,8.5002451 19.46425,8.5 L8.5,8.5 C7.67157288,8.5 7,9.17157288 7,10 L7,16 L5.5,16 L5.5,10 C5.5,8.34314575 6.84314575,7 8.5,7 L16,7 Z" id="形状" fill="#4CAAB4" fill-rule="nonzero"></path>
                <path d="M10.0930856,10.0308379 L14.8871301,12.8047402 C14.957039,12.8453319 15,12.9196522 15,13 C15,13.0803466 14.957039,13.1546669 14.8871301,13.1952586 L10.0930856,15.9691609 C10.0223819,16.0100839 9.93499106,16.010292 9.86409001,15.9697063 C9.79318896,15.9291206 9.74964997,15.8539646 9.75,15.7727704 L9.75,10.2263234 C9.75,10.1452908 9.79364629,10.0704325 9.86448696,10.0300682 C9.93532764,9.98970392 10.0225229,9.98999752 10.0930856,10.0308379 Z" id="路径" fill="#4CAAB4" fill-rule="nonzero"></path>
                <rect id="矩形" fill="#4CAAB4" x="13" y="16" width="1" height="1"></rect>
                <rect id="矩形备份-3" fill="#4CAAB4" x="15" y="15" width="1" height="2"></rect>
                <rect id="矩形备份-5" fill="#4CAAB4" x="17" y="14" width="1" height="3"></rect>
            </g>
        </g>
    </g>
</svg>