<?xml version="1.0" encoding="UTF-8"?>
<svg width="24px" height="24px" viewBox="0 0 24 24" version="1.1" xmlns="http://www.w3.org/2000/svg" xmlns:xlink="http://www.w3.org/1999/xlink">
    <title>save-line</title>
    <g id="页面-1" stroke="none" stroke-width="1" fill="none" fill-rule="evenodd">
        <g id="按钮备份" transform="translate(-1100.000000, -515.000000)">
            <g id="save-line" transform="translate(1100.000000, 515.000000)">
                <polygon id="路径" points="0 0 24 0 24 24 0 24"></polygon>
                <path d="M7,19 L7,13 L17,13 L17,19 L19,19 L19,7.828 L16.172,5 L5,5 L5,19 L7,19 Z M4,3 L17,3 L21,7 L21,20 C21,20.5522847 20.5522847,21 20,21 L4,21 C3.44771525,21 3,20.5522847 3,20 L3,4 C3,3.44771525 3.44771525,3 4,3 Z M9,15 L9,19 L15,19 L15,15 L9,15 Z" id="形状" fill="#EE7D0F" fill-rule="nonzero"></path>
            </g>
        </g>
    </g>
</svg>