<?xml version="1.0" encoding="UTF-8"?>
<svg width="14px" height="14px" viewBox="0 0 14 14" version="1.1" xmlns="http://www.w3.org/2000/svg" xmlns:xlink="http://www.w3.org/1999/xlink">
    <g id="页面-1" stroke="none" stroke-width="1" fill="none" fill-rule="evenodd">
        <g id="数据要素加工备份-16" transform="translate(-16.000000, -114.000000)" fill="#C6CACE" fill-rule="nonzero">
            <path d="M22,114 C25.312,114 28,116.688 28,120 C28,123.312 25.312,126 22,126 C18.688,126 16,123.312 16,120 C16,116.688 18.688,114 22,114 Z M22,124.666667 C24.578,124.666667 26.6666667,122.578 26.6666667,120 C26.6666667,117.421333 24.578,115.333333 22,115.333333 C19.4213333,115.333333 17.3333333,117.421333 17.3333333,120 C17.3333333,122.578 19.4213333,124.666667 22,124.666667 Z M27.6566667,124.714 L29.5426667,126.599333 L28.5993333,127.542667 L26.714,125.656667 L27.6566667,124.714 L27.6566667,124.714 Z" id="形状"></path>
        </g>
    </g>
</svg>
