<?xml version="1.0" encoding="UTF-8"?>
<svg width="25px" height="25px" viewBox="0 0 25 25" version="1.1" xmlns="http://www.w3.org/2000/svg" xmlns:xlink="http://www.w3.org/1999/xlink">
    <title>编组 13</title>
    <g id="页面-1" stroke="none" stroke-width="1" fill="none" fill-rule="evenodd">
        <g id="数据要素加工_读取数据表备份" transform="translate(-44.000000, -364.000000)">
            <g id="编组-18" transform="translate(44.000000, 364.000000)">
                <rect id="矩形" fill="#4CAAB4" opacity="0.0626961844" x="0" y="0" width="25" height="25" rx="4"></rect>
                <polygon id="路径" points="4 4 22 4 22 22 4 22"></polygon>
                <path d="M6.25,6.25 L19.75,6.25 C20.1642136,6.25 20.5,6.58578644 20.5,7 L20.5,19 C20.5,19.4142136 20.1642136,19.75 19.75,19.75 L6.25,19.75 C5.83578644,19.75 5.5,19.4142136 5.5,19 L5.5,7 C5.5,6.58578644 5.83578644,6.25 6.25,6.25 Z M7,7.75 L7,18.25 L19,18.25 L19,7.75 L7,7.75 Z M9.25,13.75 L10.75,13.75 L10.75,16.75 L9.25,16.75 L9.25,13.75 Z M12.25,9.25 L13.75,9.25 L13.75,16.75 L12.25,16.75 L12.25,9.25 Z M15.25,11.5 L16.75,11.5 L16.75,16.75 L15.25,16.75 L15.25,11.5 Z" id="形状" fill="#4CAAB4" fill-rule="nonzero"></path>
            </g>
        </g>
    </g>
</svg>