<?xml version="1.0" encoding="UTF-8"?>
<svg width="16px" height="16px" viewBox="0 0 16 16" version="1.1" xmlns="http://www.w3.org/2000/svg" xmlns:xlink="http://www.w3.org/1999/xlink">
    <g id="页面-1" stroke="none" stroke-width="1" fill="none" fill-rule="evenodd">
        <g id="数据要素加工备份-17" transform="translate(-206.000000, -203.000000)" fill="#8C8C8C" fill-rule="nonzero">
            <g id="编组-12" transform="translate(37.000000, 195.000000)">
                <g id="question-line" transform="translate(168.000000, 7.000000)">
                    <path d="M9,16.5 C4.85775,16.5 1.5,13.14225 1.5,9 C1.5,4.85775 4.85775,1.5 9,1.5 C13.14225,1.5 16.5,4.85775 16.5,9 C16.5,13.14225 13.14225,16.5 9,16.5 Z M9,15 C12.3137085,15 15,12.3137085 15,9 C15,5.6862915 12.3137085,3 9,3 C5.6862915,3 3,5.6862915 3,9 C3,12.3137085 5.6862915,15 9,15 Z M8.25,11.25 L9.75,11.25 L9.75,12.75 L8.25,12.75 L8.25,11.25 Z M9.75,10.01625 L9.75,10.5 L8.25,10.5 L8.25,9.375 C8.25,8.96078644 8.58578644,8.625 9,8.625 C9.59261354,8.6249628 10.0835841,8.16521297 10.122501,7.57387864 C10.1614178,6.98254432 9.73493505,6.46241508 9.14743772,6.38471247 C8.55994039,6.30700985 8.01290225,6.69838085 7.89675,7.2795 L6.42525,6.98475 C6.67761417,5.72343323 7.8065619,4.83064008 9.09208565,4.87576609 C10.3776094,4.9208921 11.4411756,5.89064954 11.6044751,7.16655743 C11.7677745,8.44246532 10.9827222,9.64882162 9.75,10.01625 L9.75,10.01625 Z" id="形状"></path>
                </g>
            </g>
        </g>
    </g>
</svg>
