<?xml version="1.0" encoding="UTF-8"?>
<svg width="12px" height="12px" viewBox="0 0 12 12" version="1.1" xmlns="http://www.w3.org/2000/svg" xmlns:xlink="http://www.w3.org/1999/xlink">
    <title>zoom-in-line (1)</title>
    <g id="页面-1" stroke="none" stroke-width="1" fill="none" fill-rule="evenodd">
        <g id="按钮备份" transform="translate(-818.000000, -653.000000)">
            <g id="zoom-in-line-(1)" transform="translate(818.000000, 653.000000)">
                <polygon id="路径" points="0 0 12 0 12 12 0 12"></polygon>
                <path d="M9.0155,8.3085 L11.157,10.4495 L10.4495,11.157 L8.3085,9.0155 C7.51186911,9.65411056 6.52100054,10.0014526 5.5,10 C3.016,10 1,7.984 1,5.5 C1,3.016 3.016,1 5.5,1 C7.984,1 10,3.016 10,5.5 C10.0014526,6.52100054 9.65411056,7.51186911 9.0155,8.3085 Z M8.0125,7.9375 C8.64705644,7.28494283 9.0014335,6.41021464 9,5.5 C9,3.566 7.4335,2 5.5,2 C3.566,2 2,3.566 2,5.5 C2,7.4335 3.566,9 5.5,9 C6.41021464,9.0014335 7.28494283,8.64705644 7.9375,8.0125 L8.0125,7.9375 L8.0125,7.9375 Z M5,5 L5,3.5 L6,3.5 L6,5 L7.5,5 L7.5,6 L6,6 L6,7.5 L5,7.5 L5,6 L3.5,6 L3.5,5 L5,5 Z" id="形状" fill="#939393" fill-rule="nonzero"></path>
            </g>
        </g>
    </g>
</svg>